Coordinates
version=1
nRows=17
nColumns=40
inDegrees=yes

Units are S.I. units (second, meters, Newtons, ...)
If the header above contains a line with 'inDegrees', this indicates whether rotational values are in degrees (yes) or radians (no).

endheader
time	pelvis_tilt	pelvis_list	pelvis_rotation	pelvis_tx	pelvis_ty	pelvis_tz	hip_flexion_r	hip_adduction_r	hip_rotation_r	knee_angle_r	knee_angle_r_beta	ankle_angle_r	subtalar_angle_r	mtp_angle_r	hip_flexion_l	hip_adduction_l	hip_rotation_l	knee_angle_l	knee_angle_l_beta	ankle_angle_l	subtalar_angle_l	mtp_angle_l	lumbar_extension	lumbar_bending	lumbar_rotation	arm_flex_r	arm_add_r	arm_rot_r	elbow_flex_r	pro_sup_r	wrist_flex_r	wrist_dev_r	arm_flex_l	arm_add_l	arm_rot_l	elbow_flex_l	pro_sup_l	wrist_flex_l	wrist_dev_l
      6.57500000	    -28.75559531	    -81.72545072	     89.95936573	      0.42449689	      0.70350774	     -0.61792867	    119.94495597	     15.37212216	     39.98115624	     57.56828716	      1.00475616	    -14.95974644	      0.00000000	      0.00000000	     65.50811398	     19.38459949	    -39.97437325	      0.03712807	      0.00064801	     30.21092896	      0.00000000	      0.00000000	    -89.96387410	    -66.79238489	    -89.49618216	     76.99519824	     13.01304441	      7.32864963	     11.48961346	     32.52256201	      0.00000000	      0.00000000	     66.39055169	    -22.30597150	     -5.00882593	     19.65347655	     78.60205309	      0.00000000	      0.00000000
      6.58000000	    -28.64327477	    -81.75826637	     89.95921736	      0.42403339	      0.70409512	     -0.61780395	    119.94456829	     15.38123706	     39.98111751	     57.45839330	      1.00283815	    -15.03642898	      0.00000000	      0.00000000	     65.57188686	     19.32561835	    -39.97439189	      0.03712740	      0.00064800	     30.17475470	      0.00000000	      0.00000000	    -89.96376860	    -66.78484740	    -89.50249482	     76.70964387	     12.88993673	      7.30677272	     12.07044649	     32.60370469	      0.00000000	      0.00000000	     66.36274482	    -22.30425999	     -4.90708986	     19.79872760	     78.15648241	      0.00000000	      0.00000000
      6.58500000	    -28.51084027	    -81.78558982	     89.95900988	      0.42354694	      0.70463343	     -0.61775160	    119.94417452	     15.41792827	     39.98106628	     57.37905691	      1.00145346	    -15.10404801	      0.00000000	      0.00000000	     65.63216071	     19.25742395	    -39.97437559	      0.03720947	      0.00064943	     30.26257505	      0.00000000	      0.00000000	    -89.96362810	    -66.80582704	    -89.50967612	     76.37366516	     12.76285780	      7.28088160	     12.71424855	     32.72401671	      0.00000000	      0.00000000	     66.27698527	    -22.34272120	     -4.72421722	     20.00559502	     77.56767734	      0.00000000	      0.00000000
      6.59000000	    -28.41493154	    -81.81873186	     89.95882753	      0.42305857	      0.70531177	     -0.61758766	    119.94380127	     15.40971255	     39.98102780	     57.26688747	      0.99949574	    -15.15790355	      0.00000000	      0.00000000	     65.70060966	     19.22142344	    -39.97439589	      0.03720614	      0.00064937	     30.03364577	      0.00000000	      0.00000000	    -89.96356149	    -66.76893052	    -89.52263724	     76.18409311	     12.68482933	      7.26277119	     13.11810970	     32.81369373	      0.00000000	      0.00000000	     66.28711091	    -22.37566957	     -4.48242127	     20.08689834	     77.12154836	      0.00000000	      0.00000000
      6.59500000	    -28.29290954	    -81.87156529	     89.95859507	      0.42263099	      0.70593925	     -0.61747157	    119.94348646	     15.41857585	     39.98098768	     57.12391440	      0.99700039	    -15.16563746	      0.00000000	      0.00000000	     65.78816989	     19.16100591	    -39.97443353	      0.03714489	      0.00064830	     29.86704620	      0.00000000	      0.00000000	    -89.96346321	    -66.77600836	    -89.52072617	     76.77296270	     12.80946502	      7.30260869	     12.08068013	     32.76015685	      0.00000000	      0.00000000	     66.59667731	    -22.33362313	     -4.17342780	     19.63305442	     77.52494162	      0.00000000	      0.00000000
      6.60000000	    -28.23084587	    -81.90797970	     89.95841846	      0.42206834	      0.70665966	     -0.61728698	    119.94338450	     15.36346964	     39.98095944	     56.99535325	      0.99475657	    -15.24811564	      0.00000000	      0.00000000	     65.85511955	     19.16954430	    -39.97449174	      0.03707318	      0.00064705	     29.60404737	      0.00000000	      0.00000000	    -89.96344822	    -66.69312446	    -89.52380440	     76.56845538	     12.71733371	      7.28908975	     12.53636239	     32.85369554	      0.00000000	      0.00000000	     66.54445931	    -22.33364993	     -4.15164849	     19.85820902	     77.18827693	      0.00000000	      0.00000000
      6.60500000	    -27.92304922	    -81.96248750	     89.95816879	      0.42194456	      0.70716142	     -0.61714226	    119.94199159	     15.55853866	     39.98083108	     56.81391676	      0.99158991	    -15.32346651	      0.00000000	      0.00000000	     65.96201448	     18.92061391	    -39.97452624	      0.03721077	      0.00064945	     29.96846225	      0.00000000	      0.00000000	    -89.96281946	    -66.86404978	    -89.55380518	     76.18606794	     12.55864519	      7.25610403	     13.32960012	     33.00252867	      0.00000000	      0.00000000	     66.42327068	    -22.37207363	     -4.03443850	     20.24179215	     76.52123528	      0.00000000	      0.00000000
      6.61000000	    -28.00093100	    -81.98831306	     89.95798664	      0.42117763	      0.70797129	     -0.61701637	    119.94258305	     15.37388360	     39.98088157	     56.72647275	      0.99006372	    -15.41041004	      0.00000000	      0.00000000	     66.00198150	     19.07217394	    -39.97458222	      0.03697492	      0.00064533	     29.49513895	      0.00000000	      0.00000000	    -89.96321673	    -66.65578031	    -89.54830482	     76.01796659	     12.44258323	      7.23124948	     13.71777714	     33.12851146	      0.00000000	      0.00000000	     66.38842822	    -22.41954885	     -3.67859457	     20.33609242	     76.02060952	      0.00000000	      0.00000000
      6.61500000	    -27.87201137	    -82.02666383	     89.95774313	      0.42073887	      0.70865499	     -0.61695091	    119.94222333	     15.39651278	     39.98082720	     56.62284967	      0.98825516	    -15.50764755	      0.00000000	      0.00000000	     66.07373544	     19.01327346	    -39.97459711	      0.03699338	      0.00064566	     29.40867180	      0.00000000	      0.00000000	    -89.96318651	    -66.67331261	    -89.54518620	     77.13803119	     12.79531801	      7.30131616	     11.65426128	     32.97204423	      0.00000000	      0.00000000	     66.82136068	    -22.29115325	     -3.78198479	     19.65393797	     77.10071823	      0.00000000	      0.00000000
      6.62000000	    -27.78047879	    -82.05359084	     89.95756794	      0.42030202	      0.70927626	     -0.61684614	    119.94196723	     15.39181742	     39.98078788	     56.52048203	      0.98646851	    -15.60726189	      0.00000000	      0.00000000	     66.12419762	     18.98979385	    -39.97466938	      0.03690344	      0.00064409	     29.48865115	      0.00000000	      0.00000000	    -89.96307320	    -66.63469470	    -89.56116091	     76.63724926	     12.60616688	      7.26464028	     12.61552421	     33.13925159	      0.00000000	      0.00000000	     66.64000242	    -22.34864633	     -3.65469279	     20.05005054	     76.41101035	      0.00000000	      0.00000000
      6.62500000	    -27.60268285	    -82.12379953	     89.95713370	      0.41997949	      0.71006210	     -0.61659953	    119.94116882	     15.42929907	     39.98071085	     56.29456806	      0.98252556	    -15.69250800	      0.00000000	      0.00000000	     66.24727427	     18.88460475	    -39.97471308	      0.03690874	      0.00064418	     29.51820999	      0.00000000	      0.00000000	    -89.96280934	    -66.65916575	    -89.56764379	     76.22556108	     12.39004489	      7.22224430	     13.52288495	     33.30886586	      0.00000000	      0.00000000	     66.58405557	    -22.31611013	     -3.44048592	     20.53904076	     75.71027252	      0.00000000	      0.00000000
      6.63000000	    -27.61873652	    -82.14489045	     89.95712276	      0.41937057	      0.71085098	     -0.61651050	    119.94173895	     15.31557058	     39.98073394	     56.22559504	      0.98132176	    -15.81509361	      0.00000000	      0.00000000	     66.28189481	     18.97272102	    -39.97479214	      0.03663236	      0.00063936	     29.07279223	      0.00000000	      0.00000000	    -89.96316256	    -66.49484337	    -89.56817141	     75.94873837	     12.26201523	      7.19180532	     14.08390826	     33.45550416	      0.00000000	      0.00000000	     66.46310213	    -22.42900680	     -3.07502351	     20.61052429	     75.14987309	      0.00000000	      0.00000000
      6.63500000	    -27.48984003	    -82.19913028	     89.95681975	      0.41898009	      0.71163634	     -0.61638304	    119.94134626	     15.32033612	     39.98067432	     56.05758921	      0.97838950	    -15.91200413	      0.00000000	      0.00000000	     66.37326906	     18.91646647	    -39.97482837	      0.03661678	      0.00063908	     28.95862761	      0.00000000	      0.00000000	    -89.96308008	    -66.47948928	    -89.56680008	     75.70942925	     12.11589653	      7.15765297	     14.58002087	     33.59718898	      0.00000000	      0.00000000	     66.45808460	    -22.42860549	     -2.75568243	     20.92880963	     74.61634997	      0.00000000	      0.00000000
      6.64000000	    -27.35116976	    -82.24981793	     89.95656126	      0.41862434	      0.71239144	     -0.61626507	    119.94097207	     15.33741012	     39.98062646	     55.89980388	      0.97563563	    -16.01137516	      0.00000000	      0.00000000	     66.45185407	     18.84771851	    -39.97491918	      0.03644584	      0.00063610	     28.66670167	      0.00000000	      0.00000000	    -89.96295905	    -66.50544834	    -89.56789587	     77.08785152	     12.53032716	      7.44273045	     12.09693746	     33.02912524	      0.00000000	      0.00000000	     67.66071628	    -21.99263672	     -4.11324039	     18.91893708	     79.65170990	      0.00000000	      0.00000000
      6.64500000	    -27.24952406	    -82.28048568	     89.95630614	      0.41817684	      0.71317527	     -0.61603140	    119.94027408	     15.31906079	     39.98055057	     55.74791995	      0.97298475	    -16.14784426	      0.00000000	      0.00000000	     66.51847219	     18.82737730	    -39.97501571	      0.03629278	      0.00063343	     28.67946501	      0.00000000	      0.00000000	    -89.96266288	    -66.42832009	    -89.59245754	     76.61553422	     12.33385879	      7.40233091	     13.07796770	     33.21062972	      0.00000000	      0.00000000	     67.42907948	    -22.12433895	     -3.83437509	     19.24974763	     78.64334268	      0.00000000	      0.00000000
      6.65000000	    -27.13005097	    -82.33659030	     89.95610418	      0.41782968	      0.71395529	     -0.61594400	    119.94051044	     15.31726931	     39.98052808	     55.58892693	      0.97020980	    -16.24817561	      0.00000000	      0.00000000	     66.60370765	     18.77616657	    -39.97506845	      0.03617591	      0.00063139	     28.55406002	      0.00000000	      0.00000000	    -89.96276873	    -66.38831388	    -89.59420725	     76.21969508	     12.15572477	      7.36269340	     13.90257672	     33.38645138	      0.00000000	      0.00000000	     67.30735803	    -22.14900660	     -3.50973847	     19.62719921	     77.74543253	      0.00000000	      0.00000000
      6.65500000	    -27.05676180	    -82.38189384	     89.95588924	      0.41742837	      0.71479007	     -0.61579038	    119.94035361	     15.26918625	     39.98048810	     55.43440389	      0.96751287	    -16.38701077	      0.00000000	      0.00000000	     66.67427874	     18.77349280	    -39.97514957	      0.03597785	      0.00062793	     28.29439953	      0.00000000	      0.00000000	    -89.96282287	    -66.30530383	    -89.59898527	     75.92439624	     12.00152059	      7.32509317	     14.51490751	     33.54570081	      0.00000000	      0.00000000	     67.23848351	    -22.20208267	     -3.09757531	     19.86980898	     76.95244233	      0.00000000	      0.00000000
